<mxfile host="app.diagrams.net" modified="2021-03-30T20:04:51.825Z" agent="5.0 (Windows NT 10.0; Win64; x64) AppleWebKit/537.36 (KHTML, like Gecko) Chrome/89.0.4389.90 Safari/537.36" etag="j9VpA1T2xYMSLkaGgX2l" version="14.5.3" type="github">
  <diagram name="Page-1" id="7e0a89b8-554c-2b80-1dc8-d5c74ca68de4">
    <mxGraphModel dx="2220" dy="1190" grid="1" gridSize="10" guides="1" tooltips="1" connect="1" arrows="1" fold="1" page="1" pageScale="1" pageWidth="1100" pageHeight="850" background="#ffffff" math="0" shadow="0">
      <root>
        <mxCell id="0" />
        <mxCell id="1" parent="0" />
        <mxCell id="tB6m3Wn6waJ_9hKSVQ1o-1" value="&lt;span style=&quot;color: rgb(43 , 50 , 63) ; font-family: &amp;#34;lato&amp;#34; , sans-serif ; font-size: 15px ; background-color: rgb(255 , 255 , 255)&quot;&gt;&lt;b&gt;Joystick Shield pins&lt;/b&gt;&lt;br&gt;&lt;/span&gt;&lt;span style=&quot;color: rgb(43 , 50 , 63) ; font-family: &amp;#34;lato&amp;#34; , sans-serif ; font-size: 15px ; background-color: rgb(255 , 255 , 255)&quot;&gt;Button&lt;/span&gt;&lt;span style=&quot;color: rgb(43 , 50 , 63) ; font-family: &amp;#34;lato&amp;#34; , sans-serif ; font-size: 15px ; background-color: rgb(255 , 255 , 255)&quot;&gt;&amp;nbsp;A = Digital D2&lt;/span&gt;&lt;br style=&quot;color: rgb(43 , 50 , 63) ; font-family: &amp;#34;lato&amp;#34; , sans-serif ; font-size: 15px ; background-color: rgb(255 , 255 , 255) ; box-sizing: border-box&quot;&gt;&lt;span style=&quot;color: rgb(43 , 50 , 63) ; font-family: &amp;#34;lato&amp;#34; , sans-serif ; font-size: 15px ; background-color: rgb(255 , 255 , 255)&quot;&gt;Button&lt;/span&gt;&lt;span style=&quot;color: rgb(43 , 50 , 63) ; font-family: &amp;#34;lato&amp;#34; , sans-serif ; font-size: 15px ; background-color: rgb(255 , 255 , 255)&quot;&gt;&amp;nbsp;B = Digital D3&lt;/span&gt;&lt;br style=&quot;color: rgb(43 , 50 , 63) ; font-family: &amp;#34;lato&amp;#34; , sans-serif ; font-size: 15px ; background-color: rgb(255 , 255 , 255) ; box-sizing: border-box&quot;&gt;&lt;span style=&quot;color: rgb(43 , 50 , 63) ; font-family: &amp;#34;lato&amp;#34; , sans-serif ; font-size: 15px ; background-color: rgb(255 , 255 , 255)&quot;&gt;Button&lt;/span&gt;&lt;span style=&quot;color: rgb(43 , 50 , 63) ; font-family: &amp;#34;lato&amp;#34; , sans-serif ; font-size: 15px ; background-color: rgb(255 , 255 , 255)&quot;&gt;&amp;nbsp;C = Digital D4&lt;/span&gt;&lt;br style=&quot;color: rgb(43 , 50 , 63) ; font-family: &amp;#34;lato&amp;#34; , sans-serif ; font-size: 15px ; background-color: rgb(255 , 255 , 255) ; box-sizing: border-box&quot;&gt;&lt;span style=&quot;color: rgb(43 , 50 , 63) ; font-family: &amp;#34;lato&amp;#34; , sans-serif ; font-size: 15px ; background-color: rgb(255 , 255 , 255)&quot;&gt;Button D = Digital D5&lt;/span&gt;&lt;br style=&quot;color: rgb(43 , 50 , 63) ; font-family: &amp;#34;lato&amp;#34; , sans-serif ; font-size: 15px ; background-color: rgb(255 , 255 , 255) ; box-sizing: border-box&quot;&gt;&lt;span style=&quot;color: rgb(43 , 50 , 63) ; font-family: &amp;#34;lato&amp;#34; , sans-serif ; font-size: 15px ; background-color: rgb(255 , 255 , 255)&quot;&gt;Button&lt;/span&gt;&lt;span style=&quot;color: rgb(43 , 50 , 63) ; font-family: &amp;#34;lato&amp;#34; , sans-serif ; font-size: 15px ; background-color: rgb(255 , 255 , 255)&quot;&gt;&amp;nbsp;E = Digital D6&lt;/span&gt;&lt;br style=&quot;color: rgb(43 , 50 , 63) ; font-family: &amp;#34;lato&amp;#34; , sans-serif ; font-size: 15px ; background-color: rgb(255 , 255 , 255) ; box-sizing: border-box&quot;&gt;&lt;span style=&quot;color: rgb(43 , 50 , 63) ; font-family: &amp;#34;lato&amp;#34; , sans-serif ; font-size: 15px ; background-color: rgb(255 , 255 , 255)&quot;&gt;Button&lt;/span&gt;&lt;span style=&quot;color: rgb(43 , 50 , 63) ; font-family: &amp;#34;lato&amp;#34; , sans-serif ; font-size: 15px ; background-color: rgb(255 , 255 , 255)&quot;&gt;&amp;nbsp;F = Digital D7&lt;/span&gt;&lt;br style=&quot;color: rgb(43 , 50 , 63) ; font-family: &amp;#34;lato&amp;#34; , sans-serif ; font-size: 15px ; background-color: rgb(255 , 255 , 255) ; box-sizing: border-box&quot;&gt;&lt;span style=&quot;color: rgb(43 , 50 , 63) ; font-family: &amp;#34;lato&amp;#34; , sans-serif ; font-size: 15px ; background-color: rgb(255 , 255 , 255)&quot;&gt;Joystick button (push joystick from above) = Digital D8&lt;/span&gt;&lt;br style=&quot;color: rgb(43 , 50 , 63) ; font-family: &amp;#34;lato&amp;#34; , sans-serif ; font-size: 15px ; background-color: rgb(255 , 255 , 255) ; box-sizing: border-box&quot;&gt;&lt;span style=&quot;color: rgb(43 , 50 , 63) ; font-family: &amp;#34;lato&amp;#34; , sans-serif ; font-size: 15px ; background-color: rgb(255 , 255 , 255)&quot;&gt;Joystick x-Axis = Analog A0&lt;/span&gt;&lt;br style=&quot;color: rgb(43 , 50 , 63) ; font-family: &amp;#34;lato&amp;#34; , sans-serif ; font-size: 15px ; background-color: rgb(255 , 255 , 255) ; box-sizing: border-box&quot;&gt;&lt;span style=&quot;color: rgb(43 , 50 , 63) ; font-family: &amp;#34;lato&amp;#34; , sans-serif ; font-size: 15px ; background-color: rgb(255 , 255 , 255)&quot;&gt;Joystick y-Axis = Analog A1&lt;/span&gt;" style="text;html=1;align=center;verticalAlign=middle;whiteSpace=wrap;rounded=0;fillColor=#fff2cc;strokeColor=#d6b656;" parent="1" vertex="1">
          <mxGeometry x="50" y="20" width="310" height="260" as="geometry" />
        </mxCell>
        <mxCell id="tB6m3Wn6waJ_9hKSVQ1o-2" value="Joystick Shield on Arduino Uno" style="rounded=1;whiteSpace=wrap;html=1;" parent="1" vertex="1">
          <mxGeometry x="440" y="300" width="120" height="60" as="geometry" />
        </mxCell>
        <mxCell id="tB6m3Wn6waJ_9hKSVQ1o-3" value="FL Motor" style="rounded=1;whiteSpace=wrap;html=1;rotation=-90;" parent="1" vertex="1">
          <mxGeometry x="140" y="740" width="120" height="60" as="geometry" />
        </mxCell>
        <mxCell id="tB6m3Wn6waJ_9hKSVQ1o-4" value="BL Motor" style="rounded=1;whiteSpace=wrap;html=1;rotation=-90;" parent="1" vertex="1">
          <mxGeometry x="210" y="740" width="120" height="60" as="geometry" />
        </mxCell>
        <mxCell id="tB6m3Wn6waJ_9hKSVQ1o-5" value="FR Motor" style="rounded=1;whiteSpace=wrap;html=1;rotation=-90;" parent="1" vertex="1">
          <mxGeometry x="390" y="720" width="120" height="60" as="geometry" />
        </mxCell>
        <mxCell id="tB6m3Wn6waJ_9hKSVQ1o-6" value="BR Motor" style="rounded=1;whiteSpace=wrap;html=1;rotation=-90;" parent="1" vertex="1">
          <mxGeometry x="460" y="720" width="120" height="60" as="geometry" />
        </mxCell>
        <mxCell id="tB6m3Wn6waJ_9hKSVQ1o-9" style="edgeStyle=orthogonalEdgeStyle;rounded=0;orthogonalLoop=1;jettySize=auto;html=1;exitX=0.5;exitY=1;exitDx=0;exitDy=0;entryX=1;entryY=0.5;entryDx=0;entryDy=0;" parent="1" source="tB6m3Wn6waJ_9hKSVQ1o-7" target="tB6m3Wn6waJ_9hKSVQ1o-3" edge="1">
          <mxGeometry relative="1" as="geometry" />
        </mxCell>
        <mxCell id="tB6m3Wn6waJ_9hKSVQ1o-10" style="edgeStyle=orthogonalEdgeStyle;rounded=0;orthogonalLoop=1;jettySize=auto;html=1;exitX=0.5;exitY=1;exitDx=0;exitDy=0;entryX=1;entryY=0.5;entryDx=0;entryDy=0;" parent="1" source="tB6m3Wn6waJ_9hKSVQ1o-7" target="tB6m3Wn6waJ_9hKSVQ1o-4" edge="1">
          <mxGeometry relative="1" as="geometry" />
        </mxCell>
        <mxCell id="tB6m3Wn6waJ_9hKSVQ1o-13" style="edgeStyle=orthogonalEdgeStyle;rounded=0;orthogonalLoop=1;jettySize=auto;html=1;exitX=0.5;exitY=0;exitDx=0;exitDy=0;entryX=0;entryY=0.75;entryDx=0;entryDy=0;" parent="1" source="tB6m3Wn6waJ_9hKSVQ1o-7" target="tB6m3Wn6waJ_9hKSVQ1o-2" edge="1">
          <mxGeometry relative="1" as="geometry" />
        </mxCell>
        <mxCell id="tB6m3Wn6waJ_9hKSVQ1o-7" value="L298N" style="rounded=1;whiteSpace=wrap;html=1;" parent="1" vertex="1">
          <mxGeometry x="180" y="570" width="80" height="40" as="geometry" />
        </mxCell>
        <mxCell id="tB6m3Wn6waJ_9hKSVQ1o-12" style="edgeStyle=orthogonalEdgeStyle;rounded=0;orthogonalLoop=1;jettySize=auto;html=1;exitX=0.5;exitY=1;exitDx=0;exitDy=0;entryX=1;entryY=0.5;entryDx=0;entryDy=0;" parent="1" source="tB6m3Wn6waJ_9hKSVQ1o-8" target="tB6m3Wn6waJ_9hKSVQ1o-6" edge="1">
          <mxGeometry relative="1" as="geometry" />
        </mxCell>
        <mxCell id="tB6m3Wn6waJ_9hKSVQ1o-14" style="edgeStyle=orthogonalEdgeStyle;rounded=0;orthogonalLoop=1;jettySize=auto;html=1;exitX=0.5;exitY=0;exitDx=0;exitDy=0;" parent="1" source="tB6m3Wn6waJ_9hKSVQ1o-8" edge="1">
          <mxGeometry relative="1" as="geometry">
            <mxPoint x="450" y="360" as="targetPoint" />
          </mxGeometry>
        </mxCell>
        <mxCell id="tB6m3Wn6waJ_9hKSVQ1o-37" style="edgeStyle=orthogonalEdgeStyle;rounded=0;orthogonalLoop=1;jettySize=auto;html=1;exitX=0.75;exitY=0;exitDx=0;exitDy=0;entryX=0.75;entryY=1;entryDx=0;entryDy=0;fillColor=#f8cecc;strokeColor=#b85450;" parent="1" source="tB6m3Wn6waJ_9hKSVQ1o-8" target="tB6m3Wn6waJ_9hKSVQ1o-2" edge="1">
          <mxGeometry relative="1" as="geometry" />
        </mxCell>
        <mxCell id="tB6m3Wn6waJ_9hKSVQ1o-8" value="L298N" style="rounded=1;whiteSpace=wrap;html=1;" parent="1" vertex="1">
          <mxGeometry x="450" y="550" width="80" height="40" as="geometry" />
        </mxCell>
        <mxCell id="tB6m3Wn6waJ_9hKSVQ1o-18" style="edgeStyle=orthogonalEdgeStyle;rounded=0;orthogonalLoop=1;jettySize=auto;html=1;exitX=0.5;exitY=1;exitDx=0;exitDy=0;entryX=1;entryY=0.5;entryDx=0;entryDy=0;" parent="1" source="tB6m3Wn6waJ_9hKSVQ1o-8" target="tB6m3Wn6waJ_9hKSVQ1o-5" edge="1">
          <mxGeometry relative="1" as="geometry">
            <mxPoint x="490" y="590" as="sourcePoint" />
            <mxPoint x="420" y="650" as="targetPoint" />
          </mxGeometry>
        </mxCell>
        <mxCell id="tB6m3Wn6waJ_9hKSVQ1o-23" value="Out 1" style="text;html=1;strokeColor=none;fillColor=none;align=center;verticalAlign=middle;whiteSpace=wrap;rounded=0;" parent="1" vertex="1">
          <mxGeometry x="160" y="670" width="40" height="20" as="geometry" />
        </mxCell>
        <mxCell id="tB6m3Wn6waJ_9hKSVQ1o-24" value="Out 2" style="text;html=1;strokeColor=none;fillColor=none;align=center;verticalAlign=middle;whiteSpace=wrap;rounded=0;" parent="1" vertex="1">
          <mxGeometry x="250" y="630" width="40" height="20" as="geometry" />
        </mxCell>
        <mxCell id="tB6m3Wn6waJ_9hKSVQ1o-28" value="Out 2" style="text;html=1;strokeColor=none;fillColor=none;align=center;verticalAlign=middle;whiteSpace=wrap;rounded=0;" parent="1" vertex="1">
          <mxGeometry x="530" y="650" width="40" height="20" as="geometry" />
        </mxCell>
        <mxCell id="tB6m3Wn6waJ_9hKSVQ1o-29" value="Out 1" style="text;html=1;strokeColor=none;fillColor=none;align=center;verticalAlign=middle;whiteSpace=wrap;rounded=0;" parent="1" vertex="1">
          <mxGeometry x="430" y="605" width="40" height="30" as="geometry" />
        </mxCell>
        <mxCell id="tB6m3Wn6waJ_9hKSVQ1o-34" style="edgeStyle=orthogonalEdgeStyle;rounded=0;orthogonalLoop=1;jettySize=auto;html=1;exitX=0.25;exitY=1;exitDx=0;exitDy=0;entryX=1;entryY=0.5;entryDx=0;entryDy=0;fillColor=#f8cecc;strokeColor=#b85450;" parent="1" source="tB6m3Wn6waJ_9hKSVQ1o-33" target="tB6m3Wn6waJ_9hKSVQ1o-7" edge="1">
          <mxGeometry relative="1" as="geometry" />
        </mxCell>
        <mxCell id="tB6m3Wn6waJ_9hKSVQ1o-35" style="edgeStyle=orthogonalEdgeStyle;rounded=0;orthogonalLoop=1;jettySize=auto;html=1;exitX=0.75;exitY=1;exitDx=0;exitDy=0;entryX=0;entryY=0.5;entryDx=0;entryDy=0;fillColor=#f8cecc;strokeColor=#b85450;" parent="1" source="tB6m3Wn6waJ_9hKSVQ1o-33" target="tB6m3Wn6waJ_9hKSVQ1o-8" edge="1">
          <mxGeometry relative="1" as="geometry" />
        </mxCell>
        <mxCell id="tB6m3Wn6waJ_9hKSVQ1o-33" value="12V" style="rounded=1;whiteSpace=wrap;html=1;" parent="1" vertex="1">
          <mxGeometry x="320" y="510" width="80" height="30" as="geometry" />
        </mxCell>
        <mxCell id="tB6m3Wn6waJ_9hKSVQ1o-38" value="5V" style="text;html=1;strokeColor=none;fillColor=none;align=center;verticalAlign=middle;whiteSpace=wrap;rounded=0;" parent="1" vertex="1">
          <mxGeometry x="490" y="390" width="40" height="20" as="geometry" />
        </mxCell>
        <mxCell id="tB6m3Wn6waJ_9hKSVQ1o-40" value="ENA:D9 (PWM)&lt;br&gt;ENB:D10 (PWM)&lt;br&gt;(FL Motor) IN1:D2&amp;nbsp;&lt;br&gt;(FL Motor) IN2:D3&lt;br&gt;(BL Motor) IN3:D4&lt;br&gt;(BL Motor) IN4:D5" style="text;html=1;strokeColor=none;fillColor=none;align=center;verticalAlign=middle;whiteSpace=wrap;rounded=0;" parent="1" vertex="1">
          <mxGeometry x="60" y="450" width="160" height="110" as="geometry" />
        </mxCell>
        <mxCell id="tB6m3Wn6waJ_9hKSVQ1o-42" value="ENA:D11 (PWM)&lt;br&gt;ENB:D6 (PWM)&lt;br&gt;(FR Motor) IN1:D7&amp;nbsp;&lt;br&gt;(FR Motor) IN2:D8&lt;br&gt;(BR Motor) IN3:D12&lt;br&gt;(BR Motor) IN4:D13" style="text;html=1;strokeColor=none;fillColor=none;align=center;verticalAlign=middle;whiteSpace=wrap;rounded=0;" parent="1" vertex="1">
          <mxGeometry x="310" y="360" width="160" height="110" as="geometry" />
        </mxCell>
        <mxCell id="LC9xKQTqOaQGB3kga-MJ-1" value="&lt;ul style=&quot;box-sizing: border-box; border: 0px; font-stretch: inherit; line-height: inherit; font-family: lato, sans-serif; font-size: 16px; font-style: normal; font-weight: 400; margin: 0px 0px 30px; outline: 0px; padding: 0px 0px 0px 35px; vertical-align: baseline; list-style: square; color: rgb(102, 102, 102); letter-spacing: normal; text-indent: 0px; text-transform: none; word-spacing: 0px; background-color: rgb(255, 255, 255);&quot;&gt;&lt;li style=&quot;box-sizing: border-box ; border: 0px ; font-variant: inherit ; font-stretch: inherit ; line-height: inherit ; font-family: inherit ; font-size: 16px ; font-style: inherit ; font-weight: inherit ; margin: 0px ; outline: 0px ; padding: 0px ; vertical-align: baseline&quot;&gt;&lt;strong style=&quot;box-sizing: border-box ; border: 0px ; font-variant: inherit ; font-stretch: inherit ; line-height: inherit ; font-family: inherit ; font-size: 16px ; font-style: inherit ; font-weight: bold ; margin: 0px ; outline: 0px ; padding: 0px ; vertical-align: baseline&quot;&gt;IN1&lt;/strong&gt;&lt;span&gt;&amp;nbsp;&lt;/span&gt;– Input 1 for Motor A&lt;/li&gt;&lt;li style=&quot;box-sizing: border-box ; border: 0px ; font-variant: inherit ; font-stretch: inherit ; line-height: inherit ; font-family: inherit ; font-size: 16px ; font-style: inherit ; font-weight: inherit ; margin: 0px ; outline: 0px ; padding: 0px ; vertical-align: baseline&quot;&gt;&lt;strong style=&quot;box-sizing: border-box ; border: 0px ; font-variant: inherit ; font-stretch: inherit ; line-height: inherit ; font-family: inherit ; font-size: 16px ; font-style: inherit ; font-weight: bold ; margin: 0px ; outline: 0px ; padding: 0px ; vertical-align: baseline&quot;&gt;IN2&lt;/strong&gt;&lt;span&gt;&amp;nbsp;&lt;/span&gt;– Input 2 for Motor A&lt;/li&gt;&lt;li style=&quot;box-sizing: border-box ; border: 0px ; font-variant: inherit ; font-stretch: inherit ; line-height: inherit ; font-family: inherit ; font-size: 16px ; font-style: inherit ; font-weight: inherit ; margin: 0px ; outline: 0px ; padding: 0px ; vertical-align: baseline&quot;&gt;&lt;strong style=&quot;box-sizing: border-box ; border: 0px ; font-variant: inherit ; font-stretch: inherit ; line-height: inherit ; font-family: inherit ; font-size: 16px ; font-style: inherit ; font-weight: bold ; margin: 0px ; outline: 0px ; padding: 0px ; vertical-align: baseline&quot;&gt;IN3&lt;/strong&gt;&lt;span&gt;&amp;nbsp;&lt;/span&gt;– Input 3 for Motor B&lt;/li&gt;&lt;li style=&quot;box-sizing: border-box ; border: 0px ; font-variant: inherit ; font-stretch: inherit ; line-height: inherit ; font-family: inherit ; font-size: 16px ; font-style: inherit ; font-weight: inherit ; margin: 0px ; outline: 0px ; padding: 0px ; vertical-align: baseline&quot;&gt;&lt;strong style=&quot;box-sizing: border-box ; border: 0px ; font-variant: inherit ; font-stretch: inherit ; line-height: inherit ; font-family: inherit ; font-size: 16px ; font-style: inherit ; font-weight: bold ; margin: 0px ; outline: 0px ; padding: 0px ; vertical-align: baseline&quot;&gt;IN4&lt;/strong&gt;&lt;span&gt;&amp;nbsp;&lt;/span&gt;– Input 4 for Motor B&lt;/li&gt;&lt;li style=&quot;box-sizing: border-box ; border: 0px ; font-variant: inherit ; font-stretch: inherit ; line-height: inherit ; font-family: inherit ; font-size: 16px ; font-style: inherit ; font-weight: inherit ; margin: 0px ; outline: 0px ; padding: 0px ; vertical-align: baseline&quot;&gt;&lt;strong style=&quot;box-sizing: border-box ; border: 0px ; font-variant: inherit ; font-stretch: inherit ; line-height: inherit ; font-family: inherit ; font-size: 16px ; font-style: inherit ; font-weight: bold ; margin: 0px ; outline: 0px ; padding: 0px ; vertical-align: baseline&quot;&gt;EN1&lt;/strong&gt;&lt;span&gt;&amp;nbsp;&lt;/span&gt;– Enable line for Motor A&lt;/li&gt;&lt;li style=&quot;box-sizing: border-box ; border: 0px ; font-variant: inherit ; font-stretch: inherit ; line-height: inherit ; font-family: inherit ; font-size: 16px ; font-style: inherit ; font-weight: inherit ; margin: 0px ; outline: 0px ; padding: 0px ; vertical-align: baseline&quot;&gt;&lt;strong style=&quot;box-sizing: border-box ; border: 0px ; font-variant: inherit ; font-stretch: inherit ; line-height: inherit ; font-family: inherit ; font-size: 16px ; font-style: inherit ; font-weight: bold ; margin: 0px ; outline: 0px ; padding: 0px ; vertical-align: baseline&quot;&gt;EN2&lt;/strong&gt;&lt;span&gt;&amp;nbsp;&lt;/span&gt;– Enable Line for Motor B&lt;/li&gt;&lt;/ul&gt;" style="text;whiteSpace=wrap;html=1;fillColor=#fff2cc;strokeColor=#d6b656;" vertex="1" parent="1">
          <mxGeometry x="470" y="10" width="280" height="130" as="geometry" />
        </mxCell>
        <mxCell id="LC9xKQTqOaQGB3kga-MJ-2" value="&lt;table width=&quot;768&quot; style=&quot;box-sizing: border-box; border: 0px; font-stretch: inherit; line-height: inherit; font-family: lato, sans-serif; font-size: 10px; font-style: normal; font-weight: 400; margin: 0px 0px 1.5em; outline: 0px; padding: 0px; vertical-align: baseline; border-collapse: collapse; border-spacing: 0px; width: 750px; color: rgb(102, 102, 102); letter-spacing: normal; text-transform: none; word-spacing: 0px; background-color: rgb(255, 255, 255); height: 307px;&quot;&gt;&lt;tbody style=&quot;box-sizing: border-box; border: 0px; font-variant: inherit; font-stretch: inherit; line-height: inherit; font-family: inherit; font-size: 10px; font-style: inherit; font-weight: inherit; margin: 0px; outline: 0px; padding: 0px; vertical-align: baseline;&quot;&gt;&lt;tr style=&quot;box-sizing: border-box; border: 0px; font-variant: inherit; font-stretch: inherit; line-height: inherit; font-family: inherit; font-size: 10px; font-style: inherit; font-weight: inherit; margin: 0px; outline: 0px; padding: 0px; vertical-align: baseline; background-color: rgb(100, 149, 237); color: rgb(255, 255, 255);&quot;&gt;&lt;td style=&quot;box-sizing: border-box; border: 1px solid rgb(234, 234, 234); font-variant: inherit; font-stretch: inherit; line-height: inherit; font-family: inherit; font-size: 10px; font-style: inherit; font-weight: inherit; margin: 0px; outline: 0px; padding: 6px 10px; vertical-align: baseline; text-align: left;&quot;&gt;&lt;p style=&quot;box-sizing: border-box; border: 0px; font-variant: inherit; font-stretch: inherit; line-height: 24px; font-family: lato, sans-serif; font-size: 10px; font-style: inherit; font-weight: inherit; margin: 0px 0px 15px; outline: 0px; padding: 0px; vertical-align: baseline; text-align: center;&quot;&gt;&lt;b style=&quot;box-sizing: border-box; font-size: 10px;&quot;&gt;INPUT 1&lt;/b&gt;&lt;/p&gt;&lt;/td&gt;&lt;td style=&quot;box-sizing: border-box; border: 1px solid rgb(234, 234, 234); font-variant: inherit; font-stretch: inherit; line-height: inherit; font-family: inherit; font-size: 10px; font-style: inherit; font-weight: inherit; margin: 0px; outline: 0px; padding: 6px 10px; vertical-align: baseline; text-align: center;&quot;&gt;&lt;b style=&quot;box-sizing: border-box; font-size: 10px;&quot;&gt;INPUT 2&lt;/b&gt;&lt;/td&gt;&lt;td style=&quot;box-sizing: border-box; border: 1px solid rgb(234, 234, 234); font-variant: inherit; font-stretch: inherit; line-height: inherit; font-family: inherit; font-size: 10px; font-style: inherit; font-weight: inherit; margin: 0px; outline: 0px; padding: 6px 10px; vertical-align: baseline; text-align: left;&quot;&gt;&lt;p style=&quot;box-sizing: border-box; border: 0px; font-variant: inherit; font-stretch: inherit; line-height: 24px; font-family: lato, sans-serif; font-size: 10px; font-style: inherit; font-weight: inherit; margin: 0px 0px 15px; outline: 0px; padding: 0px; vertical-align: baseline; text-align: center;&quot;&gt;&lt;b style=&quot;box-sizing: border-box; font-size: 10px;&quot;&gt;DIRECTION&lt;/b&gt;&lt;/p&gt;&lt;/td&gt;&lt;/tr&gt;&lt;tr style=&quot;box-sizing: border-box; border: 0px; font-variant: inherit; font-stretch: inherit; line-height: inherit; font-family: inherit; font-size: 10px; font-style: inherit; font-weight: inherit; margin: 0px; outline: 0px; padding: 0px; vertical-align: baseline;&quot;&gt;&lt;td style=&quot;box-sizing: border-box; border: 1px solid rgb(234, 234, 234); font-variant: inherit; font-stretch: inherit; line-height: inherit; font-family: inherit; font-size: 10px; font-style: inherit; font-weight: inherit; margin: 0px; outline: 0px; padding: 6px 10px; vertical-align: baseline; text-align: left;&quot;&gt;&lt;p style=&quot;box-sizing: border-box; border: 0px; font-variant: inherit; font-stretch: inherit; line-height: 24px; font-family: lato, sans-serif; font-size: 10px; font-style: inherit; font-weight: inherit; margin: 0px 0px 15px; outline: 0px; padding: 0px; vertical-align: baseline; text-align: center;&quot;&gt;&lt;span style=&quot;box-sizing: border-box; border: 0px; font-variant: inherit; font-stretch: inherit; line-height: inherit; font-family: inherit; font-size: 10px; font-style: inherit; font-weight: 400; margin: 0px; outline: 0px; padding: 0px; vertical-align: baseline;&quot;&gt;Ground (0)&lt;/span&gt;&lt;/p&gt;&lt;/td&gt;&lt;td style=&quot;box-sizing: border-box; border: 1px solid rgb(234, 234, 234); font-variant: inherit; font-stretch: inherit; line-height: inherit; font-family: inherit; font-size: 10px; font-style: inherit; font-weight: inherit; margin: 0px; outline: 0px; padding: 6px 10px; vertical-align: baseline; text-align: center;&quot;&gt;&lt;span style=&quot;box-sizing: border-box; border: 0px; font-variant: inherit; font-stretch: inherit; line-height: inherit; font-family: inherit; font-size: 10px; font-style: inherit; font-weight: 400; margin: 0px; outline: 0px; padding: 0px; vertical-align: baseline;&quot;&gt;Ground (0)&lt;/span&gt;&lt;/td&gt;&lt;td style=&quot;box-sizing: border-box; border: 1px solid rgb(234, 234, 234); font-variant: inherit; font-stretch: inherit; line-height: inherit; font-family: inherit; font-size: 10px; font-style: inherit; font-weight: inherit; margin: 0px; outline: 0px; padding: 6px 10px; vertical-align: baseline; text-align: center;&quot;&gt;&lt;span style=&quot;box-sizing: border-box; border: 0px; font-variant: inherit; font-stretch: inherit; line-height: inherit; font-family: inherit; font-size: 10px; font-style: inherit; font-weight: 400; margin: 0px; outline: 0px; padding: 0px; vertical-align: baseline;&quot;&gt;Motor Off&lt;/span&gt;&lt;/td&gt;&lt;/tr&gt;&lt;tr style=&quot;box-sizing: border-box; border: 0px; font-variant: inherit; font-stretch: inherit; line-height: inherit; font-family: inherit; font-size: 10px; font-style: inherit; font-weight: inherit; margin: 0px; outline: 0px; padding: 0px; vertical-align: baseline;&quot;&gt;&lt;td style=&quot;box-sizing: border-box; border: 1px solid rgb(234, 234, 234); font-variant: inherit; font-stretch: inherit; line-height: inherit; font-family: inherit; font-size: 10px; font-style: inherit; font-weight: inherit; margin: 0px; outline: 0px; padding: 6px 10px; vertical-align: baseline; text-align: left;&quot;&gt;&lt;p style=&quot;box-sizing: border-box; border: 0px; font-variant: inherit; font-stretch: inherit; line-height: 24px; font-family: lato, sans-serif; font-size: 10px; font-style: inherit; font-weight: inherit; margin: 0px 0px 15px; outline: 0px; padding: 0px; vertical-align: baseline; text-align: center;&quot;&gt;&lt;span style=&quot;box-sizing: border-box; border: 0px; font-variant: inherit; font-stretch: inherit; line-height: inherit; font-family: inherit; font-size: 10px; font-style: inherit; font-weight: 400; margin: 0px; outline: 0px; padding: 0px; vertical-align: baseline;&quot;&gt;5 Volts (1)&lt;/span&gt;&lt;/p&gt;&lt;/td&gt;&lt;td style=&quot;box-sizing: border-box; border: 1px solid rgb(234, 234, 234); font-variant: inherit; font-stretch: inherit; line-height: inherit; font-family: inherit; font-size: 10px; font-style: inherit; font-weight: inherit; margin: 0px; outline: 0px; padding: 6px 10px; vertical-align: baseline; text-align: left;&quot;&gt;&lt;p style=&quot;box-sizing: border-box; border: 0px; font-variant: inherit; font-stretch: inherit; line-height: 24px; font-family: lato, sans-serif; font-size: 10px; font-style: inherit; font-weight: inherit; margin: 0px 0px 15px; outline: 0px; padding: 0px; vertical-align: baseline; text-align: center;&quot;&gt;&lt;span style=&quot;box-sizing: border-box; border: 0px; font-variant: inherit; font-stretch: inherit; line-height: inherit; font-family: inherit; font-size: 10px; font-style: inherit; font-weight: 400; margin: 0px; outline: 0px; padding: 0px; vertical-align: baseline;&quot;&gt;Ground (0)&lt;/span&gt;&lt;/p&gt;&lt;/td&gt;&lt;td style=&quot;box-sizing: border-box; border: 1px solid rgb(234, 234, 234); font-variant: inherit; font-stretch: inherit; line-height: inherit; font-family: inherit; font-size: 10px; font-style: inherit; font-weight: inherit; margin: 0px; outline: 0px; padding: 6px 10px; vertical-align: baseline; text-align: left;&quot;&gt;&lt;p style=&quot;box-sizing: border-box; border: 0px; font-variant: inherit; font-stretch: inherit; line-height: 24px; font-family: lato, sans-serif; font-size: 10px; font-style: inherit; font-weight: inherit; margin: 0px 0px 15px; outline: 0px; padding: 0px; vertical-align: baseline; text-align: center;&quot;&gt;&lt;span style=&quot;box-sizing: border-box; border: 0px; font-variant: inherit; font-stretch: inherit; line-height: inherit; font-family: inherit; font-size: 10px; font-style: inherit; font-weight: 400; margin: 0px; outline: 0px; padding: 0px; vertical-align: baseline;&quot;&gt;Forward&lt;/span&gt;&lt;/p&gt;&lt;/td&gt;&lt;/tr&gt;&lt;tr style=&quot;box-sizing: border-box; border: 0px; font-variant: inherit; font-stretch: inherit; line-height: inherit; font-family: inherit; font-size: 10px; font-style: inherit; font-weight: inherit; margin: 0px; outline: 0px; padding: 0px; vertical-align: baseline;&quot;&gt;&lt;td style=&quot;box-sizing: border-box; border: 1px solid rgb(234, 234, 234); font-variant: inherit; font-stretch: inherit; line-height: inherit; font-family: inherit; font-size: 10px; font-style: inherit; font-weight: inherit; margin: 0px; outline: 0px; padding: 6px 10px; vertical-align: baseline; text-align: left;&quot;&gt;&lt;p style=&quot;box-sizing: border-box; border: 0px; font-variant: inherit; font-stretch: inherit; line-height: 24px; font-family: lato, sans-serif; font-size: 10px; font-style: inherit; font-weight: inherit; margin: 0px 0px 15px; outline: 0px; padding: 0px; vertical-align: baseline; text-align: center;&quot;&gt;&lt;span style=&quot;box-sizing: border-box; border: 0px; font-variant: inherit; font-stretch: inherit; line-height: inherit; font-family: inherit; font-size: 10px; font-style: inherit; font-weight: 400; margin: 0px; outline: 0px; padding: 0px; vertical-align: baseline;&quot;&gt;Ground (0)&lt;/span&gt;&lt;/p&gt;&lt;/td&gt;&lt;td style=&quot;box-sizing: border-box; border: 1px solid rgb(234, 234, 234); font-variant: inherit; font-stretch: inherit; line-height: inherit; font-family: inherit; font-size: 10px; font-style: inherit; font-weight: inherit; margin: 0px; outline: 0px; padding: 6px 10px; vertical-align: baseline; text-align: left;&quot;&gt;&lt;p style=&quot;box-sizing: border-box; border: 0px; font-variant: inherit; font-stretch: inherit; line-height: 24px; font-family: lato, sans-serif; font-size: 10px; font-style: inherit; font-weight: inherit; margin: 0px 0px 15px; outline: 0px; padding: 0px; vertical-align: baseline; text-align: center;&quot;&gt;&lt;span style=&quot;box-sizing: border-box; border: 0px; font-variant: inherit; font-stretch: inherit; line-height: inherit; font-family: inherit; font-size: 10px; font-style: inherit; font-weight: 400; margin: 0px; outline: 0px; padding: 0px; vertical-align: baseline;&quot;&gt;5 Volts (1)&lt;/span&gt;&lt;/p&gt;&lt;/td&gt;&lt;td style=&quot;box-sizing: border-box; border: 1px solid rgb(234, 234, 234); font-variant: inherit; font-stretch: inherit; line-height: inherit; font-family: inherit; font-size: 10px; font-style: inherit; font-weight: inherit; margin: 0px; outline: 0px; padding: 6px 10px; vertical-align: baseline; text-align: left;&quot;&gt;&lt;p style=&quot;box-sizing: border-box; border: 0px; font-variant: inherit; font-stretch: inherit; line-height: 24px; font-family: lato, sans-serif; font-size: 10px; font-style: inherit; font-weight: inherit; margin: 0px 0px 15px; outline: 0px; padding: 0px; vertical-align: baseline; text-align: center;&quot;&gt;&lt;span style=&quot;box-sizing: border-box; border: 0px; font-variant: inherit; font-stretch: inherit; line-height: inherit; font-family: inherit; font-size: 10px; font-style: inherit; font-weight: 400; margin: 0px; outline: 0px; padding: 0px; vertical-align: baseline;&quot;&gt;Reverse&lt;/span&gt;&lt;/p&gt;&lt;/td&gt;&lt;/tr&gt;&lt;/tbody&gt;&lt;/table&gt;" style="text;whiteSpace=wrap;html=1;fontSize=10;" vertex="1" parent="1">
          <mxGeometry x="600" y="180" width="500" height="180" as="geometry" />
        </mxCell>
      </root>
    </mxGraphModel>
  </diagram>
</mxfile>
